<svg width="45" height="42" viewBox="0 0 45 42" fill="none" xmlns="http://www.w3.org/2000/svg">
<g filter="url(#filter0_d_3_23)">
<path d="M15.7138 35.5654L6.43419 26.2858C4.73882 24.5904 3.89115 23.7427 3.77025 22.7076C3.74325 22.4764 3.74325 22.2429 3.77025 22.0119C3.89115 20.9767 4.73882 20.1291 6.43417 18.4337C8.12953 16.7383 8.97722 15.8906 10.0124 15.7699C10.2435 15.7428 10.4769 15.7428 10.708 15.7699C11.7431 15.8906 12.5908 16.7383 14.2862 18.4337L15.661 19.8086L22.809 12.6605L21.4342 11.2857C19.7389 9.59036 18.8912 8.74269 18.7702 7.70752C18.7432 7.47645 18.7432 7.24301 18.7702 7.01193C18.8912 5.97677 19.7389 5.12908 21.4342 3.43372C23.1296 1.73837 23.9773 0.890678 25.0123 0.769778C25.2435 0.742797 25.4769 0.742797 25.7079 0.769778C26.7431 0.890678 27.5908 1.73837 29.2862 3.43372L38.5657 12.7134C40.2611 14.4087 41.1088 15.2564 41.2297 16.2915C41.2567 16.5227 41.2567 16.7561 41.2297 16.9871C41.1088 18.0223 40.2611 18.87 38.5657 20.5654C36.8704 22.2607 36.0229 23.1084 34.9877 23.2294C34.7565 23.2564 34.5231 23.2564 34.2921 23.2294C33.2569 23.1084 32.4092 22.2607 30.7138 20.5654L28.629 18.4806L21.4809 25.6286L23.5657 27.7134C25.2611 29.4086 26.1088 30.2563 26.2297 31.2915C26.2567 31.5227 26.2567 31.7561 26.2297 31.9871C26.1088 33.0223 25.2611 33.87 23.5657 35.5654C21.8704 37.2607 21.0227 38.1084 19.9877 38.2294C19.7565 38.2564 19.5231 38.2564 19.2921 38.2294C18.2569 38.1084 17.4092 37.2607 15.7138 35.5654Z" fill="white"/>
</g>
<defs>
<filter id="filter0_d_3_23" x="-0.25" y="0.749542" width="45.5" height="45.5001" filterUnits="userSpaceOnUse" color-interpolation-filters="sRGB">
<feFlood flood-opacity="0" result="BackgroundImageFix"/>
<feColorMatrix in="SourceAlpha" type="matrix" values="0 0 0 0 0 0 0 0 0 0 0 0 0 0 0 0 0 0 127 0" result="hardAlpha"/>
<feOffset dy="4"/>
<feGaussianBlur stdDeviation="2"/>
<feComposite in2="hardAlpha" operator="out"/>
<feColorMatrix type="matrix" values="0 0 0 0 0 0 0 0 0 0 0 0 0 0 0 0 0 0 0.25 0"/>
<feBlend mode="normal" in2="BackgroundImageFix" result="effect1_dropShadow_3_23"/>
<feBlend mode="normal" in="SourceGraphic" in2="effect1_dropShadow_3_23" result="shape"/>
</filter>
</defs>
</svg>
