<svg width="30" height="30" viewBox="0 0 30 30" fill="none" xmlns="http://www.w3.org/2000/svg">
<g clip-path="url(#clip0_8_58)">
<path d="M24.3527 8.22575C24.5185 8.22575 24.6527 8.09148 24.6527 7.92575V5.47864C24.6527 5.31291 24.5185 5.17864 24.3527 5.17864H5.69994C5.66054 5.17863 5.62152 5.18638 5.58512 5.20146C5.54872 5.21653 5.51565 5.23863 5.48779 5.26649C5.45993 5.29435 5.43783 5.32742 5.42276 5.36382C5.40768 5.40022 5.39993 5.43924 5.39994 5.47864V7.92575C5.39994 8.09148 5.5342 8.22575 5.69994 8.22575H24.3527ZM24.3527 9.42575H5.69994C4.87148 9.42575 4.19994 8.7542 4.19994 7.92575V5.47864C4.19994 4.65018 4.87148 3.97864 5.69994 3.97864H24.3527C25.1812 3.97864 25.8527 4.65018 25.8527 5.47864V7.92575C25.8527 8.7542 25.1812 9.42575 24.3527 9.42575Z" fill="#768184"/>
<path d="M23.637 8.9264L21.9306 28.4513C21.9146 28.6343 21.7339 28.7999 21.55 28.7999H8.50271C8.31884 28.7999 8.13805 28.6343 8.12214 28.4515L6.41572 8.9264C6.38686 8.59629 6.09588 8.35207 5.76577 8.38093C5.43565 8.40978 5.19143 8.70076 5.22029 9.03088L6.92668 28.5558C6.99656 29.3585 7.69655 29.9999 8.50271 29.9999H21.55C22.3562 29.9999 23.0562 29.3585 23.1261 28.5556L24.8324 9.03088C24.8613 8.70076 24.6171 8.40975 24.287 8.38093C23.9568 8.3521 23.6658 8.59629 23.637 8.9264ZM12.3639 4.54342V1.50293C12.3639 1.33517 12.4987 1.19994 12.6639 1.19994H17.3889C17.5541 1.19994 17.6889 1.3352 17.6889 1.50293V4.54342C17.6889 4.87479 17.9575 5.14342 18.2889 5.14342C18.6202 5.14342 18.8889 4.87479 18.8889 4.54342V1.50293C18.8889 0.673357 18.2177 -6.10352e-05 17.3889 -6.10352e-05H12.6639C11.835 -6.10352e-05 11.1639 0.673386 11.1639 1.50293V4.54342C11.1639 4.87479 11.4325 5.14342 11.7639 5.14342C12.0952 5.14342 12.3639 4.87479 12.3639 4.54342Z" fill="#768184"/>
<path d="M14.5314 12.0358V25.5406C14.5314 25.872 14.8 26.1406 15.1314 26.1406C15.4627 26.1406 15.7314 25.872 15.7314 25.5406V12.0358C15.7314 11.7044 15.4627 11.4358 15.1314 11.4358C14.8 11.4358 14.5314 11.7044 14.5314 12.0358ZM8.89362 12.0875L10.0636 25.5923C10.0922 25.9225 10.383 26.1669 10.7132 26.1383C11.0433 26.1097 11.2877 25.8189 11.2591 25.4888L10.0891 11.984C10.0605 11.6538 9.76971 11.4094 9.43959 11.438C9.10947 11.4666 8.86502 11.7574 8.89362 12.0875ZM19.9636 11.984L18.7936 25.4888C18.765 25.8189 19.0094 26.1097 19.3396 26.1383C19.6697 26.1669 19.9605 25.9225 19.9891 25.5923L21.1591 12.0875C21.1877 11.7574 20.9433 11.4666 20.6132 11.438C20.283 11.4094 19.9922 11.6538 19.9636 11.984Z" fill="#768184"/>
</g>
<defs>
<clipPath id="clip0_8_58">
<rect width="30" height="30" fill="white"/>
</clipPath>
</defs>
</svg>
