<svg width="100" height="132" viewBox="0 0 100 132" fill="none" xmlns="http://www.w3.org/2000/svg">
<g filter="url(#filter0_d_3_9)">
<path d="M23.3793 28.1456L60.6207 13L49.2414 51.4466L12 66.5922L23.3793 28.1456Z" fill="#768184"/>
<path d="M34.7586 34.5534L72 19.4078L60.6207 57.8544L23.3793 73L34.7586 34.5534Z" fill="#768184"/>
</g>
<g filter="url(#filter1_d_3_9)">
<path d="M34.3793 34.1456L71.6207 19L60.2414 57.4466L23 72.5922L34.3793 34.1456Z" fill="#B8BDBE"/>
<path d="M45.7586 40.5534L83 25.4078L71.6207 63.8544L34.3793 79L45.7586 40.5534Z" fill="#B8BDBE"/>
</g>
<g filter="url(#filter2_i_3_9)">
<path d="M48.3793 39.1456L85.6207 24L74.2414 62.4466L37 77.5922L48.3793 39.1456Z" fill="#5F00FB"/>
<path d="M59.7586 45.5534L97 30.4078L85.6207 68.8544L48.3793 84L59.7586 45.5534Z" fill="#5F00FB"/>
</g>
<path d="M35.5674 85.6H37.3274L34.6214 101H32.8614L34.1154 93.916H24.2154L22.9614 101H21.2014L23.9074 85.6H25.6674L24.5014 92.244H34.4014L35.5674 85.6ZM49.7188 90.22H51.3908L49.4988 101H47.8268L48.0908 99.526C46.9468 100.714 45.3848 101.22 43.9108 101.22C40.5008 101.22 38.5868 98.602 39.1368 95.478C39.6208 92.552 42.1288 90 45.5388 90C47.2768 90 48.7068 90.682 49.4328 91.936L49.7188 90.22ZM44.1968 99.658C45.8688 99.658 47.3868 98.932 48.4208 97.678L49.1248 93.652C48.4428 92.288 47.3428 91.54 45.6708 91.54C43.0528 91.54 41.2268 93.322 40.8088 95.61C40.3688 98.03 41.6668 99.658 44.1968 99.658ZM60.7908 90C64.1348 90 66.0488 92.728 65.5428 95.83C65.0588 98.734 62.5288 101.22 59.1188 101.22C57.2928 101.22 55.9508 100.494 55.2468 99.35L54.9608 101H53.2888L55.9948 85.6H57.6668L56.5888 91.76C57.7328 90.572 59.2728 90 60.7908 90ZM63.8488 95.676C64.2668 93.366 63.0348 91.54 60.4828 91.54C58.8768 91.54 57.3588 92.288 56.2368 93.674L55.5328 97.656C56.1488 99.02 57.2928 99.658 58.9208 99.658C61.5608 99.658 63.4528 98.008 63.8488 95.676ZM70.9608 87.998C70.1908 87.998 69.6848 87.404 69.8388 86.678C69.9268 86.084 70.4988 85.622 71.1368 85.622C71.8848 85.622 72.3688 86.194 72.2368 86.92C72.1268 87.514 71.5768 87.998 70.9608 87.998ZM71.2688 90.22L69.3768 101H67.7048L69.5968 90.22H71.2688ZM77.3638 91.738L76.2858 97.964C76.0658 99.196 76.7478 99.702 77.9358 99.702C78.7938 99.702 79.4978 99.526 80.2678 99.152L80.0038 100.714C79.2778 101.066 78.5518 101.22 77.6938 101.22C75.6258 101.22 74.2618 100.032 74.6358 97.942L75.7138 91.738H73.6458L73.9098 90.22H75.9778L76.5498 86.92H78.2218L77.6278 90.22H81.9838L81.7198 91.738H77.3638ZM26.1958 105.6L25.8878 107.272H19.7938L18.7158 113.3L17.3738 121H15.6138L16.9558 113.3L18.0338 107.272H11.9178L12.2258 105.6H20.0798H26.1958ZM27.1531 112.156C28.5391 110.572 30.1891 109.956 32.0591 110L31.7511 111.65C29.9471 111.628 27.9231 112.486 26.8011 114.224L25.6131 121H23.9411L25.8331 110.22H27.5051L27.1531 112.156ZM42.9297 110.22H44.6017L42.7097 121H41.0377L41.3017 119.526C40.1577 120.714 38.5957 121.22 37.1217 121.22C33.7117 121.22 31.7977 118.602 32.3477 115.478C32.8317 112.552 35.3397 110 38.7497 110C40.4877 110 41.9177 110.682 42.6437 111.936L42.9297 110.22ZM37.4077 119.658C39.0797 119.658 40.5977 118.932 41.6317 117.678L42.3357 113.652C41.6537 112.288 40.5537 111.54 38.8817 111.54C36.2637 111.54 34.4377 113.322 34.0197 115.61C33.5797 118.03 34.8777 119.658 37.4077 119.658ZM51.6917 121.22C48.0617 121.22 46.2137 118.602 46.7637 115.478C47.2917 112.398 49.8437 110 53.2977 110C55.7397 110 57.3237 111.188 57.8517 112.816L56.4437 113.476C55.9597 112.244 54.9037 111.54 53.2977 111.54C50.7457 111.54 48.8537 113.256 48.4357 115.632C48.0397 117.832 49.1397 119.658 51.7797 119.658C53.3417 119.658 54.7937 118.954 55.6737 117.612L56.9497 118.514C55.8497 120.23 53.9137 121.22 51.6917 121.22ZM71.0063 110.22L70.9843 110.33L65.8803 114.884L69.2683 120.912L69.2463 121H67.5303L64.6483 115.984L61.4363 118.844L61.0623 121H59.3903L62.0963 105.6H63.7683L61.8543 116.446L68.8943 110.22H71.0063ZM77.8722 110C81.2822 110 83.2622 112.574 82.1842 116.402H80.5782H73.0102C72.9442 118.382 74.1542 119.702 76.6182 119.702C78.0702 119.702 79.2802 119.284 80.4462 118.338L81.1282 119.68C79.8082 120.67 78.3562 121.22 76.6182 121.22C73.0322 121.22 70.9202 118.822 71.4922 115.478C72.0422 112.464 74.5502 110 77.8722 110ZM73.2522 114.972H80.8862C81.1062 112.794 79.9182 111.518 77.8282 111.518C75.6282 111.518 73.8902 112.86 73.2522 114.972ZM87.6101 112.156C88.9961 110.572 90.6461 109.956 92.5161 110L92.2081 111.65C90.4041 111.628 88.3801 112.486 87.2581 114.224L86.0701 121H84.3981L86.2901 110.22H87.9621L87.6101 112.156Z" fill="black"/>
<defs>
<filter id="filter0_d_3_9" x="3" y="13" width="69" height="68" filterUnits="userSpaceOnUse" color-interpolation-filters="sRGB">
<feFlood flood-opacity="0" result="BackgroundImageFix"/>
<feColorMatrix in="SourceAlpha" type="matrix" values="0 0 0 0 0 0 0 0 0 0 0 0 0 0 0 0 0 0 127 0" result="hardAlpha"/>
<feOffset dx="-5" dy="4"/>
<feGaussianBlur stdDeviation="2"/>
<feComposite in2="hardAlpha" operator="out"/>
<feColorMatrix type="matrix" values="0 0 0 0 0 0 0 0 0 0 0 0 0 0 0 0 0 0 0.2 0"/>
<feBlend mode="normal" in2="BackgroundImageFix" result="effect1_dropShadow_3_9"/>
<feBlend mode="normal" in="SourceGraphic" in2="effect1_dropShadow_3_9" result="shape"/>
</filter>
<filter id="filter1_d_3_9" x="15" y="19" width="68" height="68" filterUnits="userSpaceOnUse" color-interpolation-filters="sRGB">
<feFlood flood-opacity="0" result="BackgroundImageFix"/>
<feColorMatrix in="SourceAlpha" type="matrix" values="0 0 0 0 0 0 0 0 0 0 0 0 0 0 0 0 0 0 127 0" result="hardAlpha"/>
<feOffset dx="-4" dy="4"/>
<feGaussianBlur stdDeviation="2"/>
<feComposite in2="hardAlpha" operator="out"/>
<feColorMatrix type="matrix" values="0 0 0 0 0 0 0 0 0 0 0 0 0 0 0 0 0 0 0.16 0"/>
<feBlend mode="normal" in2="BackgroundImageFix" result="effect1_dropShadow_3_9"/>
<feBlend mode="normal" in="SourceGraphic" in2="effect1_dropShadow_3_9" result="shape"/>
</filter>
<filter id="filter2_i_3_9" x="37" y="24" width="60" height="64" filterUnits="userSpaceOnUse" color-interpolation-filters="sRGB">
<feFlood flood-opacity="0" result="BackgroundImageFix"/>
<feBlend mode="normal" in="SourceGraphic" in2="BackgroundImageFix" result="shape"/>
<feColorMatrix in="SourceAlpha" type="matrix" values="0 0 0 0 0 0 0 0 0 0 0 0 0 0 0 0 0 0 127 0" result="hardAlpha"/>
<feOffset dy="4"/>
<feGaussianBlur stdDeviation="2"/>
<feComposite in2="hardAlpha" operator="arithmetic" k2="-1" k3="1"/>
<feColorMatrix type="matrix" values="0 0 0 0 0 0 0 0 0 0 0 0 0 0 0 0 0 0 0.25 0"/>
<feBlend mode="normal" in2="shape" result="effect1_innerShadow_3_9"/>
</filter>
</defs>
</svg>
