<svg width="49" height="49" viewBox="0 0 49 49" fill="none" xmlns="http://www.w3.org/2000/svg">
<g filter="url(#filter0_d_3_31)">
<path d="M36.0488 14.4053C33.8252 14.1943 31.7729 14.5942 30.292 15.4028C30.9907 16.2949 31.439 17.6924 31.439 19.2656C31.439 20.5488 31.1401 21.7134 30.6523 22.5835C31.896 23.3262 33.4868 23.8491 35.249 24.0161C39.4985 24.4204 43.124 22.5923 43.3437 19.938C43.5635 17.2837 40.2983 14.8096 36.0488 14.4053Z" fill="white"/>
<path d="M4.95312 21.709L4.99707 23.0713C5.09375 26.0464 6.14844 28.9424 8.05566 31.4385C9.88379 33.8335 12.4326 35.7979 15.4341 37.1206C16.1021 37.415 16.8799 37.1118 17.1699 36.4438C17.4644 35.7759 17.1611 34.998 16.4932 34.708C13.9004 33.5654 11.7075 31.8823 10.1475 29.8389C8.87305 28.1689 8.06006 26.2925 7.75684 24.3457H41.2695C40.9619 26.3145 40.1357 28.2085 38.835 29.896C37.2485 31.9526 35.0205 33.6401 32.3838 34.7695C31.7158 35.0552 31.4082 35.833 31.6938 36.501C31.9092 37.002 32.3926 37.3008 32.9067 37.3008C33.0825 37.3008 33.2583 37.2656 33.4253 37.1953C39.7754 34.4619 43.8403 29.0522 44.0293 23.0713L44.0732 21.709H4.95312Z" fill="white"/>
<path d="M28.0112 35.1606H21.0239C19.4771 35.1606 18.207 36.4263 18.207 37.9775C18.207 39.5288 19.4727 40.7944 21.0239 40.7944H28.0112C29.5581 40.7944 30.8281 39.5288 30.8281 37.9775C30.8281 36.4263 29.5581 35.1606 28.0112 35.1606ZM28.0112 38.1533H21.0239C20.9316 38.1533 20.8438 38.0654 20.8438 37.9731C20.8438 37.8809 20.9316 37.793 21.0239 37.793H28.0112C28.1035 37.793 28.1914 37.8809 28.1914 37.9731C28.1914 38.0654 28.1035 38.1533 28.0112 38.1533Z" fill="white"/>
<path d="M23.8892 16.4136C23.4673 15.8203 22.6411 15.6841 22.0479 16.1104C21.4546 16.5322 21.3184 17.3584 21.7446 17.9517C22.2192 18.6152 22.4741 19.4019 22.4741 20.2236C22.4741 20.9531 23.063 21.542 23.7925 21.542C24.522 21.542 25.1108 20.9531 25.1108 20.2236C25.1108 18.8438 24.689 17.5254 23.8892 16.4136ZM21.002 14.1416C20.2241 13.8296 19.4067 13.6714 18.563 13.6714C14.9507 13.6714 12.0151 16.6069 12.0151 20.2192C12.0151 20.9487 12.604 21.5376 13.3335 21.5376C14.063 21.5376 14.6519 20.9487 14.6519 20.2192C14.6519 18.0615 16.4053 16.3081 18.563 16.3081C19.0684 16.3081 19.5562 16.4004 20.0176 16.5894C20.6943 16.8618 21.459 16.5322 21.7314 15.8555C22.0039 15.1787 21.6787 14.4097 21.002 14.1416Z" fill="white"/>
<path d="M26.1436 12.0718C24.0913 10.0679 21.4107 8.96045 18.5938 8.96045C15.7769 8.96045 13.0962 10.0635 11.044 12.0718C9.01809 14.0537 7.79201 16.73 7.58987 19.604C7.53713 20.3291 8.08645 20.9619 8.81155 21.0103C9.53664 21.0586 10.1695 20.5137 10.2178 19.7886C10.3716 17.5561 11.3208 15.4863 12.8853 13.957C14.4409 12.4365 16.4668 11.5972 18.5938 11.5972C20.7163 11.5972 22.7466 12.4365 24.3023 13.957C25.8667 15.4863 26.8115 17.5561 26.9697 19.7886C27.0181 20.4829 27.5982 21.0146 28.2837 21.0146C28.3145 21.0146 28.3452 21.0146 28.376 21.0103C29.1011 20.9575 29.6504 20.3291 29.5977 19.604C29.3955 16.73 28.1695 14.0537 26.1436 12.0718ZM41.3355 16.9585C40.8301 16.106 40.1182 15.3501 39.2217 14.7085L41.5904 12.1465C42.0825 11.6103 42.0518 10.7754 41.5156 10.2832C40.9795 9.79101 40.1446 9.82178 39.6524 10.3579L36.7959 13.4517C36.5762 13.3726 36.3521 13.2979 36.1236 13.2319L39.7447 6.23584C40.0786 5.58984 39.8281 4.79443 39.1778 4.46045C38.5318 4.12646 37.7363 4.37695 37.4024 5.02734L33.3946 12.7749C33.1529 12.7617 32.9068 12.7529 32.6607 12.7529C31.6983 12.7529 30.749 12.8584 29.835 13.0693C29.1275 13.2319 28.6836 13.9395 28.8462 14.6514C29.0088 15.3589 29.7163 15.8027 30.4282 15.6401C31.1446 15.4731 31.896 15.3896 32.6563 15.3896C34.5723 15.3896 36.3565 15.9082 37.6792 16.853C38.8701 17.7012 39.5249 18.7866 39.5249 19.9072C39.5249 20.6367 40.1138 21.2256 40.8433 21.2256C41.5728 21.2256 42.1616 20.6367 42.1616 19.9072C42.1616 18.8745 41.8848 17.8813 41.3355 16.9585Z" fill="white"/>
</g>
<defs>
<filter id="filter0_d_3_31" x="-2" y="0" width="53" height="53" filterUnits="userSpaceOnUse" color-interpolation-filters="sRGB">
<feFlood flood-opacity="0" result="BackgroundImageFix"/>
<feColorMatrix in="SourceAlpha" type="matrix" values="0 0 0 0 0 0 0 0 0 0 0 0 0 0 0 0 0 0 127 0" result="hardAlpha"/>
<feOffset dy="4"/>
<feGaussianBlur stdDeviation="2"/>
<feComposite in2="hardAlpha" operator="out"/>
<feColorMatrix type="matrix" values="0 0 0 0 0 0 0 0 0 0 0 0 0 0 0 0 0 0 0.25 0"/>
<feBlend mode="normal" in2="BackgroundImageFix" result="effect1_dropShadow_3_31"/>
<feBlend mode="normal" in="SourceGraphic" in2="effect1_dropShadow_3_31" result="shape"/>
</filter>
</defs>
</svg>
