<svg width="45" height="45" viewBox="0 0 45 45" fill="none" xmlns="http://www.w3.org/2000/svg">
<path d="M40.7812 7.0752H30.7266C28.5688 7.0752 26.4595 7.69483 24.6445 8.86377L22.5 10.2393L20.3555 8.86377C18.5423 7.69505 16.4306 7.07404 14.2734 7.0752H4.21875C3.44092 7.0752 2.8125 7.70361 2.8125 8.48145V33.4424C2.8125 34.2202 3.44092 34.8486 4.21875 34.8486H14.2734C16.4312 34.8486 18.5405 35.4683 20.3555 36.6372L22.3066 37.894C22.3638 37.9292 22.4297 37.9512 22.4956 37.9512C22.5615 37.9512 22.6274 37.9336 22.6846 37.894L24.6357 36.6372C26.4551 35.4683 28.5688 34.8486 30.7266 34.8486H40.7812C41.5591 34.8486 42.1875 34.2202 42.1875 33.4424V8.48145C42.1875 7.70361 41.5591 7.0752 40.7812 7.0752ZM14.2734 31.6846H5.97656V10.2393H14.2734C15.8291 10.2393 17.3408 10.6831 18.646 11.5225L20.7905 12.898L21.0938 13.0957V33.3984C19.002 32.2734 16.6641 31.6846 14.2734 31.6846ZM39.0234 31.6846H30.7266C28.3359 31.6846 25.998 32.2734 23.9062 33.3984V13.0957L24.2095 12.898L26.354 11.5225C27.6592 10.6831 29.1709 10.2393 30.7266 10.2393H39.0234V31.6846ZM17.4419 15.8643H9.27686C9.10547 15.8643 8.96484 16.0137 8.96484 16.1938V18.1714C8.96484 18.3516 9.10547 18.501 9.27686 18.501H17.4375C17.6089 18.501 17.7495 18.3516 17.7495 18.1714V16.1938C17.7539 16.0137 17.6133 15.8643 17.4419 15.8643ZM27.2461 16.1938V18.1714C27.2461 18.3516 27.3867 18.501 27.5581 18.501H35.7187C35.8901 18.501 36.0308 18.3516 36.0308 18.1714V16.1938C36.0308 16.0137 35.8901 15.8643 35.7187 15.8643H27.5581C27.3867 15.8643 27.2461 16.0137 27.2461 16.1938ZM17.4419 22.0166H9.27686C9.10547 22.0166 8.96484 22.166 8.96484 22.3462V24.3237C8.96484 24.5039 9.10547 24.6533 9.27686 24.6533H17.4375C17.6089 24.6533 17.7495 24.5039 17.7495 24.3237V22.3462C17.7539 22.166 17.6133 22.0166 17.4419 22.0166ZM35.7231 22.0166H27.5581C27.3867 22.0166 27.2461 22.166 27.2461 22.3462V24.3237C27.2461 24.5039 27.3867 24.6533 27.5581 24.6533H35.7187C35.8901 24.6533 36.0308 24.5039 36.0308 24.3237V22.3462C36.0352 22.166 35.8945 22.0166 35.7231 22.0166Z" fill="white"/>
</svg>
