<svg width="45" height="45" viewBox="0 0 45 45" fill="none" xmlns="http://www.w3.org/2000/svg">
<g clip-path="url(#clip0_3_10)">
<path d="M44.1394 5.01162L39.9874 0.859489C38.8428 -0.285023 36.9801 -0.285111 35.8354 0.859577L33.1664 3.52855C30.3459 1.65578 26.4628 1.92806 23.928 4.46292L19.776 8.61496C18.8559 9.53508 18.4295 10.7644 18.4955 11.9716L14.8285 15.6386C13.6213 15.5726 12.3921 15.9989 11.472 16.919C10.974 17.417 1.75573 26.6353 1.28772 27.1033C-0.429402 28.8203 -0.429402 31.6142 1.28772 33.3313L11.6677 43.7112C13.3848 45.4283 16.1786 45.4282 17.8956 43.7112C18.3639 43.2429 27.5818 34.0252 28.0799 33.527C29 32.6069 29.4264 31.3777 29.3604 30.1705L33.0274 26.5035C34.2787 26.5719 35.4931 26.1137 36.3839 25.2229L40.5359 21.071C43.0722 18.5347 43.3422 14.6516 41.4703 11.8326L44.1391 9.16383C45.2866 8.01651 45.287 6.15903 44.1394 5.01162ZM15.8198 41.6352C15.246 42.209 14.3176 42.209 13.7438 41.6352L3.36378 31.2552C2.79021 30.6817 2.79003 29.7529 3.36378 29.1792L7.32009 25.2229L19.776 37.6789L15.8198 41.6352ZM26.0041 31.4509L21.852 35.6029L9.39607 23.1469L13.548 18.9949C14.1205 18.4225 15.0518 18.4226 15.6241 18.9948L26.0041 29.3748C26.5764 29.9472 26.5764 30.8786 26.0041 31.4509ZM28.08 27.2988L17.7001 16.9189L19.776 14.8429L30.156 25.2228L28.08 27.2988ZM38.4601 18.9949L34.3081 23.1469C33.7358 23.7192 32.8046 23.7193 32.2322 23.1469L21.852 12.7669C21.2796 12.1945 21.2796 11.2633 21.852 10.6908L26.0041 6.53889C27.7254 4.81756 30.5107 4.81764 32.232 6.53889L38.46 12.7669C40.1811 14.488 40.1813 17.2735 38.4601 18.9949ZM39.498 9.65303C39.058 9.21305 35.7861 5.94106 35.346 5.50099L37.9114 2.93555L42.0633 7.08759L39.498 9.65303Z" fill="white"/>
</g>
<defs>
<clipPath id="clip0_3_10">
<rect width="45" height="45" fill="white"/>
</clipPath>
</defs>
</svg>
